<?xml version="1.0" encoding="UTF-8"?>
<svg xmlns="http://www.w3.org/2000/svg" xmlns:xlink="http://www.w3.org/1999/xlink" width="12px" height="18px" viewBox="0 0 12 18" version="1.1">
<g id="surface1">
<path style="fill:none;stroke-width:104.764;stroke-linecap:butt;stroke-linejoin:miter;stroke:rgb(96.470588%,50.980392%,7.058824%);stroke-opacity:1;stroke-miterlimit:4;" d="M 111.458333 308.159722 L 111.458333 272.352431 C 111.458333 156.901042 205 63.151042 320.625 63.151042 C 436.041667 63.151042 529.791667 156.901042 529.791667 272.352431 L 529.791667 530.815972 " transform="matrix(0.01875,0,0,0.018,0,0)"/>
<path style="fill:none;stroke-width:104.764;stroke-linecap:butt;stroke-linejoin:miter;stroke:rgb(96.470588%,50.980392%,7.058824%);stroke-opacity:1;stroke-miterlimit:4;" d="M 576.041667 680.772569 C 576.041667 822.265625 461.458333 936.848958 320 936.848958 C 178.541667 936.848958 63.958333 822.265625 63.958333 680.772569 C 63.958333 539.279514 178.541667 424.696181 320 424.696181 C 461.458333 424.696181 576.041667 539.279514 576.041667 680.772569 Z M 576.041667 680.772569 " transform="matrix(0.01875,0,0,0.018,0,0)"/>
<path style=" stroke:none;fill-rule:nonzero;fill:rgb(96.470588%,50.980392%,7.058824%);fill-opacity:1;" d="M 7.640625 12.269531 C 7.640625 13.128906 6.914062 13.824219 6.019531 13.824219 C 5.125 13.824219 4.398438 13.128906 4.398438 12.269531 C 4.398438 11.410156 5.125 10.714844 6.019531 10.714844 C 6.914062 10.714844 7.640625 11.410156 7.640625 12.269531 Z M 7.640625 12.269531 "/>
</g>
</svg>
